solid Prism-Holder
facet normal 0.5636187775599323 -0.5636187775599322 0.6038772616713559
outer loop
vertex 57.91697407326462 51.86167680352113 -8.000000000000002
vertex 42.91697407326462 51.86167680352113 5.999999999999997
vertex 42.91697407326462 36.861676803521135 -8.000000000000002
endloop
endfacet
facet normal -0.6823182503600111 -2.4436255374863663e-16 0.731055268242869
outer loop
vertex 27.916974073264626 51.86167680352113 5.999999999999997
vertex 12.916974073264619 66.86167680352112 -8.000000000000002
vertex 12.916974073264619 51.86167680352113 -8.000000000000002
endloop
endfacet
facet normal -0.6823182503600111 -2.4436255374863663e-16 0.731055268242869
outer loop
vertex 12.916974073264619 66.86167680352112 -8.000000000000002
vertex 27.916974073264626 51.86167680352113 5.999999999999997
vertex 27.916974073264615 66.86167680352112 5.999999999999997
endloop
endfacet
facet normal 0.0 1.0 0.0
outer loop
vertex 27.916974073264626 51.86167680352113 5.999999999999997
vertex 42.91697407326462 51.86167680352113 2.9999999999999973
vertex 27.916974073264626 51.86167680352113 2.9999999999999973
endloop
endfacet
facet normal 0.0 1.0 0.0
outer loop
vertex 42.91697407326462 51.86167680352113 2.9999999999999973
vertex 27.916974073264626 51.86167680352113 5.999999999999997
vertex 42.91697407326462 51.86167680352113 5.999999999999997
endloop
endfacet
facet normal 0.0 -1.0 0.0
outer loop
vertex 42.91697407326462 66.86167680352112 5.999999999999997
vertex 27.916974073264615 66.86167680352112 2.9999999999999973
vertex 42.91697407326462 66.86167680352112 2.9999999999999973
endloop
endfacet
facet normal 0.0 -1.0 0.0
outer loop
vertex 27.916974073264615 66.86167680352112 2.9999999999999973
vertex 42.91697407326462 66.86167680352112 5.999999999999997
vertex 27.916974073264615 66.86167680352112 5.999999999999997
endloop
endfacet
facet normal -1.0 0.0 0.0
outer loop
vertex 42.91697407326462 66.86167680352112 5.999999999999997
vertex 42.91697407326462 51.86167680352113 2.9999999999999973
vertex 42.91697407326462 51.86167680352113 5.999999999999997
endloop
endfacet
facet normal -1.0 0.0 0.0
outer loop
vertex 42.91697407326462 51.86167680352113 2.9999999999999973
vertex 42.91697407326462 66.86167680352112 5.999999999999997
vertex 42.91697407326462 66.86167680352112 2.9999999999999973
endloop
endfacet
facet normal -0.9659258262890694 -0.2588190451025165 0.0
outer loop
vertex 38.84601075659081 60.28048441363509 -5.000000000000002
vertex 38.8960554317656 59.90035736635608 -8.000000000000007
vertex 38.8960554317656 59.90035736635608 -5.000000000000002
endloop
endfacet
facet normal -0.991444861373812 -0.1305261922200391 -0.0
outer loop
vertex 38.8960554317656 59.90035736635608 -8.000000000000007
vertex 38.84601075659081 60.28048441363509 -5.000000000000002
vertex 38.84601075659081 60.28048441363509 -8.000000000000007
endloop
endfacet
facet normal -0.7071067811865476 -0.7071067811865476 0.0
outer loop
vertex 37.927203146476856 61.87190587673337 -5.000000000000002
vertex 37.19197407326462 62.43606698695588 -8.000000000000007
vertex 37.927203146476856 61.87190587673337 -8.000000000000007
endloop
endfacet
facet normal -0.5000000000000012 -0.8660254037844382 0.0
outer loop
vertex 37.19197407326462 62.43606698695588 -8.000000000000007
vertex 37.927203146476856 61.87190587673337 -5.000000000000002
vertex 37.19197407326462 62.43606698695588 -5.000000000000002
endloop
endfacet
facet normal -0.9914448613738092 -0.1305261922200617 -0.0
outer loop
vertex 38.8960554317656 59.90035736635608 -5.000000000000002
vertex 38.966974073264616 59.361676803521135 -8.000000000000007
vertex 38.966974073264616 59.361676803521135 -5.000000000000002
endloop
endfacet
facet normal -1.0 -4.7050660249015696e-15 0.0
outer loop
vertex 38.966974073264616 59.361676803521135 -8.000000000000007
vertex 38.8960554317656 59.90035736635608 -5.000000000000002
vertex 38.8960554317656 59.90035736635608 -8.000000000000007
endloop
endfacet
facet normal -0.7071067811865476 -0.7071067811865476 0.0
outer loop
vertex 37.927203146476856 61.87190587673337 -5.000000000000002
vertex 38.49136425669937 61.13667680352114 -8.000000000000007
vertex 38.49136425669937 61.13667680352114 -5.000000000000002
endloop
endfacet
facet normal -0.8660254037844382 -0.5000000000000012 0.0
outer loop
vertex 38.49136425669937 61.13667680352114 -8.000000000000007
vertex 37.927203146476856 61.87190587673337 -5.000000000000002
vertex 37.927203146476856 61.87190587673337 -8.000000000000007
endloop
endfacet
facet normal -0.8660254037844382 -0.5000000000000012 0.0
outer loop
vertex 38.49136425669937 61.13667680352114 -5.000000000000002
vertex 38.84601075659081 60.28048441363509 -8.000000000000007
vertex 38.84601075659081 60.28048441363509 -5.000000000000002
endloop
endfacet
facet normal -0.9659258262890694 -0.2588190451025165 0.0
outer loop
vertex 38.84601075659081 60.28048441363509 -8.000000000000007
vertex 38.49136425669937 61.13667680352114 -5.000000000000002
vertex 38.49136425669937 61.13667680352114 -8.000000000000007
endloop
endfacet
facet normal -0.5000000000000012 -0.8660254037844382 0.0
outer loop
vertex 37.19197407326462 62.43606698695588 -5.000000000000002
vertex 36.33578168337856 62.790713486847324 -8.000000000000007
vertex 37.19197407326462 62.43606698695588 -8.000000000000007
endloop
endfacet
facet normal -0.25881904510252296 -0.9659258262890679 0.0
outer loop
vertex 36.33578168337856 62.790713486847324 -8.000000000000007
vertex 37.19197407326462 62.43606698695588 -5.000000000000002
vertex 36.33578168337856 62.790713486847324 -5.000000000000002
endloop
endfacet
facet normal -0.25881904510252296 -0.9659258262890679 0.0
outer loop
vertex 36.33578168337856 62.790713486847324 -5.000000000000002
vertex 35.41697407326461 62.91167680352114 -8.000000000000007
vertex 36.33578168337856 62.790713486847324 -8.000000000000007
endloop
endfacet
facet normal 0.0 -1.0 0.0
outer loop
vertex 35.41697407326461 62.91167680352114 -8.000000000000007
vertex 36.33578168337856 62.790713486847324 -5.000000000000002
vertex 35.41697407326461 62.91167680352114 -5.000000000000002
endloop
endfacet
facet normal 0.0 -1.0 0.0
outer loop
vertex 35.41697407326461 62.91167680352114 -5.000000000000002
vertex 34.49816646315066 62.790713486847324 -8.000000000000007
vertex 35.41697407326461 62.91167680352114 -8.000000000000007
endloop
endfacet
facet normal 0.25881904510252296 -0.9659258262890679 0.0
outer loop
vertex 34.49816646315066 62.790713486847324 -8.000000000000007
vertex 35.41697407326461 62.91167680352114 -5.000000000000002
vertex 34.49816646315066 62.790713486847324 -5.000000000000002
endloop
endfacet
facet normal 0.25881904510252296 -0.9659258262890679 0.0
outer loop
vertex 34.49816646315066 62.790713486847324 -5.000000000000002
vertex 33.641974073264606 62.43606698695588 -8.000000000000007
vertex 34.49816646315066 62.790713486847324 -8.000000000000007
endloop
endfacet
facet normal 0.5000000000000012 -0.8660254037844382 0.0
outer loop
vertex 33.641974073264606 62.43606698695588 -8.000000000000007
vertex 34.49816646315066 62.790713486847324 -5.000000000000002
vertex 33.641974073264606 62.43606698695588 -5.000000000000002
endloop
endfacet
facet normal 0.5000000000000012 -0.8660254037844382 0.0
outer loop
vertex 33.641974073264606 62.43606698695588 -5.000000000000002
vertex 32.90674500005237 61.87190587673337 -8.000000000000007
vertex 33.641974073264606 62.43606698695588 -8.000000000000007
endloop
endfacet
facet normal 0.7071067811865476 -0.7071067811865476 0.0
outer loop
vertex 32.90674500005237 61.87190587673337 -8.000000000000007
vertex 33.641974073264606 62.43606698695588 -5.000000000000002
vertex 32.90674500005237 61.87190587673337 -5.000000000000002
endloop
endfacet
facet normal 0.7071067811865476 -0.7071067811865476 0.0
outer loop
vertex 32.90674500005237 61.87190587673337 -8.000000000000007
vertex 32.342583889829854 61.13667680352114 -5.000000000000002
vertex 32.342583889829854 61.13667680352114 -8.000000000000007
endloop
endfacet
facet normal 0.8660254037844382 -0.5000000000000012 0.0
outer loop
vertex 32.342583889829854 61.13667680352114 -5.000000000000002
vertex 32.90674500005237 61.87190587673337 -8.000000000000007
vertex 32.90674500005237 61.87190587673337 -5.000000000000002
endloop
endfacet
facet normal 0.8660254037844382 -0.5000000000000012 0.0
outer loop
vertex 32.342583889829854 61.13667680352114 -8.000000000000007
vertex 31.987937389938416 60.28048441363509 -5.000000000000002
vertex 31.987937389938416 60.28048441363509 -8.000000000000007
endloop
endfacet
facet normal 0.9659258262890679 -0.25881904510252296 0.0
outer loop
vertex 31.987937389938416 60.28048441363509 -5.000000000000002
vertex 32.342583889829854 61.13667680352114 -8.000000000000007
vertex 32.342583889829854 61.13667680352114 -5.000000000000002
endloop
endfacet
facet normal 0.9659258262890679 -0.25881904510252296 0.0
outer loop
vertex 31.987937389938416 60.28048441363509 -8.000000000000007
vertex 31.866974073264608 59.361676803521135 -5.000000000000002
vertex 31.866974073264608 59.361676803521135 -8.000000000000007
endloop
endfacet
facet normal 1.0 4.7050660249015696e-15 0.0
outer loop
vertex 31.866974073264608 59.361676803521135 -5.000000000000002
vertex 31.987937389938416 60.28048441363509 -8.000000000000007
vertex 31.987937389938416 60.28048441363509 -5.000000000000002
endloop
endfacet
facet normal 1.0 4.7050660249015696e-15 0.0
outer loop
vertex 31.866974073264608 59.361676803521135 -8.000000000000007
vertex 31.937892714763617 58.82299624068619 -5.000000000000002
vertex 31.937892714763617 58.82299624068619 -8.000000000000007
endloop
endfacet
facet normal 0.9914448613738092 0.1305261922200617 0.0
outer loop
vertex 31.937892714763617 58.82299624068619 -5.000000000000002
vertex 31.866974073264608 59.361676803521135 -8.000000000000007
vertex 31.866974073264608 59.361676803521135 -5.000000000000002
endloop
endfacet
facet normal 0.991444861373812 0.1305261922200391 0.0
outer loop
vertex 31.937892714763617 58.82299624068619 -8.000000000000007
vertex 31.987937389938416 58.442869193407184 -5.000000000000002
vertex 31.987937389938416 58.442869193407184 -8.000000000000007
endloop
endfacet
facet normal 0.9659258262890694 0.2588190451025165 0.0
outer loop
vertex 31.987937389938416 58.442869193407184 -5.000000000000002
vertex 31.937892714763617 58.82299624068619 -8.000000000000007
vertex 31.937892714763617 58.82299624068619 -5.000000000000002
endloop
endfacet
facet normal 0.9659258262890694 0.2588190451025165 0.0
outer loop
vertex 31.987937389938416 58.442869193407184 -8.000000000000007
vertex 32.342583889829854 57.58667680352114 -5.000000000000002
vertex 32.342583889829854 57.58667680352114 -8.000000000000007
endloop
endfacet
facet normal 0.8660254037844382 0.5000000000000012 0.0
outer loop
vertex 32.342583889829854 57.58667680352114 -5.000000000000002
vertex 31.987937389938416 58.442869193407184 -8.000000000000007
vertex 31.987937389938416 58.442869193407184 -5.000000000000002
endloop
endfacet
facet normal 0.8660254037844382 0.5000000000000012 0.0
outer loop
vertex 32.342583889829854 57.58667680352114 -8.000000000000007
vertex 32.90674500005237 56.85144773030888 -5.000000000000002
vertex 32.90674500005237 56.85144773030888 -8.000000000000007
endloop
endfacet
facet normal 0.7071067811865476 0.7071067811865476 0.0
outer loop
vertex 32.90674500005237 56.85144773030888 -5.000000000000002
vertex 32.342583889829854 57.58667680352114 -8.000000000000007
vertex 32.342583889829854 57.58667680352114 -5.000000000000002
endloop
endfacet
facet normal 0.7071067811865476 0.7071067811865476 0.0
outer loop
vertex 32.90674500005237 56.85144773030888 -5.000000000000002
vertex 33.641974073264606 56.28728662008637 -8.000000000000007
vertex 32.90674500005237 56.85144773030888 -8.000000000000007
endloop
endfacet
facet normal 0.5000000000000012 0.8660254037844382 0.0
outer loop
vertex 33.641974073264606 56.28728662008637 -8.000000000000007
vertex 32.90674500005237 56.85144773030888 -5.000000000000002
vertex 33.641974073264606 56.28728662008637 -5.000000000000002
endloop
endfacet
facet normal 0.5000000000000012 0.8660254037844382 0.0
outer loop
vertex 33.641974073264606 56.28728662008637 -5.000000000000002
vertex 34.49816646315066 55.932640120194925 -8.000000000000007
vertex 33.641974073264606 56.28728662008637 -8.000000000000007
endloop
endfacet
facet normal 0.25881904510252296 0.9659258262890679 0.0
outer loop
vertex 34.49816646315066 55.932640120194925 -8.000000000000007
vertex 33.641974073264606 56.28728662008637 -5.000000000000002
vertex 34.49816646315066 55.932640120194925 -5.000000000000002
endloop
endfacet
facet normal 0.25881904510252296 0.9659258262890679 0.0
outer loop
vertex 34.49816646315066 55.932640120194925 -5.000000000000002
vertex 35.41697407326461 55.81167680352113 -8.000000000000007
vertex 34.49816646315066 55.932640120194925 -8.000000000000007
endloop
endfacet
facet normal 0.0 1.0 0.0
outer loop
vertex 35.41697407326461 55.81167680352113 -8.000000000000007
vertex 34.49816646315066 55.932640120194925 -5.000000000000002
vertex 35.41697407326461 55.81167680352113 -5.000000000000002
endloop
endfacet
facet normal 0.0 1.0 0.0
outer loop
vertex 35.41697407326461 55.81167680352113 -5.000000000000002
vertex 36.33578168337856 55.932640120194925 -8.000000000000007
vertex 35.41697407326461 55.81167680352113 -8.000000000000007
endloop
endfacet
facet normal -0.25881904510252296 0.9659258262890679 0.0
outer loop
vertex 36.33578168337856 55.932640120194925 -8.000000000000007
vertex 35.41697407326461 55.81167680352113 -5.000000000000002
vertex 36.33578168337856 55.932640120194925 -5.000000000000002
endloop
endfacet
facet normal -0.25881904510252296 0.9659258262890679 0.0
outer loop
vertex 36.33578168337856 55.932640120194925 -5.000000000000002
vertex 37.19197407326462 56.28728662008637 -8.000000000000007
vertex 36.33578168337856 55.932640120194925 -8.000000000000007
endloop
endfacet
facet normal -0.5000000000000012 0.8660254037844382 0.0
outer loop
vertex 37.19197407326462 56.28728662008637 -8.000000000000007
vertex 36.33578168337856 55.932640120194925 -5.000000000000002
vertex 37.19197407326462 56.28728662008637 -5.000000000000002
endloop
endfacet
facet normal -0.5000000000000012 0.8660254037844382 0.0
outer loop
vertex 37.19197407326462 56.28728662008637 -5.000000000000002
vertex 37.927203146476856 56.85144773030888 -8.000000000000007
vertex 37.19197407326462 56.28728662008637 -8.000000000000007
endloop
endfacet
facet normal -0.7071067811865441 0.7071067811865509 0.0
outer loop
vertex 37.927203146476856 56.85144773030888 -8.000000000000007
vertex 37.19197407326462 56.28728662008637 -5.000000000000002
vertex 37.927203146476856 56.85144773030888 -5.000000000000002
endloop
endfacet
facet normal -0.8660254037844385 0.5000000000000004 0.0
outer loop
vertex 38.49136425669938 57.58667680352114 -5.000000000000002
vertex 37.927203146476856 56.85144773030888 -8.000000000000007
vertex 37.927203146476856 56.85144773030888 -5.000000000000002
endloop
endfacet
facet normal -0.7071067811865441 0.7071067811865509 0.0
outer loop
vertex 37.927203146476856 56.85144773030888 -8.000000000000007
vertex 38.49136425669938 57.58667680352114 -5.000000000000002
vertex 38.49136425669938 57.58667680352114 -8.000000000000007
endloop
endfacet
facet normal -0.9659258262890693 0.2588190451025176 0.0
outer loop
vertex 38.84601075659081 58.442869193407184 -5.000000000000002
vertex 38.49136425669938 57.58667680352114 -8.000000000000007
vertex 38.49136425669938 57.58667680352114 -5.000000000000002
endloop
endfacet
facet normal -0.8660254037844385 0.5000000000000004 0.0
outer loop
vertex 38.49136425669938 57.58667680352114 -8.000000000000007
vertex 38.84601075659081 58.442869193407184 -5.000000000000002
vertex 38.84601075659081 58.442869193407184 -8.000000000000007
endloop
endfacet
facet normal -1.0 -4.7050660249015696e-15 0.0
outer loop
vertex 38.966974073264616 59.361676803521135 -5.000000000000002
vertex 38.84601075659081 58.442869193407184 -8.000000000000007
vertex 38.84601075659081 58.442869193407184 -5.000000000000002
endloop
endfacet
facet normal -0.9659258262890693 0.2588190451025176 0.0
outer loop
vertex 38.84601075659081 58.442869193407184 -8.000000000000007
vertex 38.966974073264616 59.361676803521135 -5.000000000000002
vertex 38.966974073264616 59.361676803521135 -8.000000000000007
endloop
endfacet
facet normal -2.715139486095923e-17 -0.682318250360011 0.7310552682428691
outer loop
vertex 42.91697407326462 36.861676803521135 -8.000000000000002
vertex 27.916974073264626 51.86167680352113 5.999999999999997
vertex 27.916974073264626 36.861676803521135 -8.000000000000002
endloop
endfacet
facet normal -2.715139486095923e-17 -0.682318250360011 0.7310552682428691
outer loop
vertex 27.916974073264626 51.86167680352113 5.999999999999997
vertex 42.91697407326462 36.861676803521135 -8.000000000000002
vertex 42.91697407326462 51.86167680352113 5.999999999999997
endloop
endfacet
facet normal -0.5636187775599321 -0.5636187775599323 0.603877261671356
outer loop
vertex 27.916974073264626 51.86167680352113 5.999999999999997
vertex 12.916974073264619 51.86167680352113 -8.000000000000002
vertex 27.916974073264626 36.861676803521135 -8.000000000000002
endloop
endfacet
facet normal 0.6823182503600113 0.0 0.7310552682428689
outer loop
vertex 57.91697407326462 51.86167680352113 -8.000000000000002
vertex 42.91697407326462 66.86167680352112 5.999999999999997
vertex 42.91697407326462 51.86167680352113 5.999999999999997
endloop
endfacet
facet normal 0.6823182503600113 0.0 0.7310552682428689
outer loop
vertex 42.91697407326462 66.86167680352112 5.999999999999997
vertex 57.91697407326462 51.86167680352113 -8.000000000000002
vertex 57.91697407326462 66.86167680352112 -8.000000000000002
endloop
endfacet
facet normal 0.9323329685068298 -0.3616009345054892 0.0
outer loop
vertex 30.522225988603754 61.26008170967494 -5.000000000000002
vertex 30.19766714008307 59.92854110583968 2.9999999999999973
vertex 30.19766714008307 59.92854110583968 -5.000000000000002
endloop
endfacet
facet normal 0.9941537015583892 -0.10797415282257762 0.0
outer loop
vertex 30.19766714008307 59.92854110583968 2.9999999999999973
vertex 30.522225988603754 61.26008170967494 -5.000000000000002
vertex 30.522225988603754 61.26008170967494 2.9999999999999973
endloop
endfacet
facet normal 0.8069752844046078 -0.5905852100756526 0.0
outer loop
vertex 31.180353830140415 62.4622491564183 -5.000000000000002
vertex 30.522225988603754 61.26008170967494 2.9999999999999973
vertex 30.522225988603754 61.26008170967494 -5.000000000000002
endloop
endfacet
facet normal 0.9323329685068298 -0.3616009345054892 0.0
outer loop
vertex 30.522225988603754 61.26008170967494 2.9999999999999973
vertex 31.180353830140415 62.4622491564183 -5.000000000000002
vertex 31.180353830140415 62.4622491564183 2.9999999999999973
endloop
endfacet
facet normal 0.6266235682599268 -0.7793220795673614 0.0
outer loop
vertex 32.12720033990001 63.45311772124977 -5.000000000000002
vertex 31.180353830140415 62.4622491564183 2.9999999999999973
vertex 31.180353830140415 62.4622491564183 -5.000000000000002
endloop
endfacet
facet normal 0.8069752844046078 -0.5905852100756526 0.0
outer loop
vertex 31.180353830140415 62.4622491564183 2.9999999999999973
vertex 32.12720033990001 63.45311772124977 -5.000000000000002
vertex 32.12720033990001 63.45311772124977 2.9999999999999973
endloop
endfacet
facet normal -0.5636187775599323 0.5636187775599323 0.6038772616713558
outer loop
vertex 27.916974073264615 81.86167680352112 -8.000000000000002
vertex 12.916974073264619 66.86167680352112 -8.000000000000002
vertex 27.916974073264615 66.86167680352112 5.999999999999997
endloop
endfacet
facet normal -2.146345738918641e-32 -2.978088215375508e-32 1.0
outer loop
vertex 27.916974073264626 51.86167680352113 2.9999999999999973
vertex 30.22879543374618 58.55836963658892 2.9999999999999973
vertex 30.19766714008307 59.92854110583968 2.9999999999999973
endloop
endfacet
facet normal -2.146345738918641e-32 -2.978088215375508e-32 1.0
outer loop
vertex 30.22879543374618 58.55836963658892 2.9999999999999973
vertex 27.916974073264626 51.86167680352113 2.9999999999999973
vertex 30.613489527821876 57.242942223236746 2.9999999999999973
endloop
endfacet
facet normal -2.146345738918641e-32 -2.978088215375508e-32 1.0
outer loop
vertex 30.613489527821876 57.242942223236746 2.9999999999999973
vertex 27.916974073264626 51.86167680352113 2.9999999999999973
vertex 31.325533155535968 56.0719030701565 2.9999999999999973
endloop
endfacet
facet normal -2.146345738918641e-32 -2.978088215375508e-32 1.0
outer loop
vertex 31.325533155535968 56.0719030701565 2.9999999999999973
vertex 27.916974073264626 51.86167680352113 2.9999999999999973
vertex 32.316401720367445 55.125056560396935 2.9999999999999973
endloop
endfacet
facet normal -2.146345738918641e-32 -2.978088215375508e-32 1.0
outer loop
vertex 32.316401720367445 55.125056560396935 2.9999999999999973
vertex 27.916974073264626 51.86167680352113 2.9999999999999973
vertex 33.5185691671108 54.46692871886027 2.9999999999999973
endloop
endfacet
facet normal -2.146345738918641e-32 -2.978088215375508e-32 1.0
outer loop
vertex 33.5185691671108 54.46692871886027 2.9999999999999973
vertex 27.916974073264626 51.86167680352113 2.9999999999999973
vertex 42.91697407326462 51.86167680352113 2.9999999999999973
endloop
endfacet
facet normal -2.146345738918641e-32 -2.978088215375508e-32 1.0
outer loop
vertex 33.5185691671108 54.46692871886027 2.9999999999999973
vertex 42.91697407326462 51.86167680352113 2.9999999999999973
vertex 34.85010977094607 54.142369870339586 2.9999999999999973
endloop
endfacet
facet normal -2.146345738918641e-32 -2.978088215375508e-32 1.0
outer loop
vertex 34.85010977094607 54.142369870339586 2.9999999999999973
vertex 42.91697407326462 51.86167680352113 2.9999999999999973
vertex 35.416974073264626 54.15524819897634 2.9999999999999973
endloop
endfacet
facet normal -2.146345738918641e-32 -2.978088215375508e-32 1.0
outer loop
vertex 35.416974073264626 54.15524819897634 2.9999999999999973
vertex 42.91697407326462 51.86167680352113 2.9999999999999973
vertex 36.220281240196826 54.1734981640027 2.9999999999999973
endloop
endfacet
facet normal -2.146345738918641e-32 -2.978088215375508e-32 1.0
outer loop
vertex 36.220281240196826 54.1734981640027 2.9999999999999973
vertex 42.91697407326462 51.86167680352113 2.9999999999999973
vertex 37.53570865354899 54.5581922580784 2.9999999999999973
endloop
endfacet
facet normal -2.146345738918641e-32 -2.978088215375508e-32 1.0
outer loop
vertex 37.53570865354899 54.5581922580784 2.9999999999999973
vertex 42.91697407326462 51.86167680352113 2.9999999999999973
vertex 38.70674780662923 55.27023588579248 2.9999999999999973
endloop
endfacet
facet normal -2.146345738918641e-32 -2.978088215375508e-32 1.0
outer loop
vertex 38.70674780662923 55.27023588579248 2.9999999999999973
vertex 42.91697407326462 51.86167680352113 2.9999999999999973
vertex 39.65359431638881 56.26110445062397 2.9999999999999973
endloop
endfacet
facet normal -2.146345738918641e-32 -2.978088215375508e-32 1.0
outer loop
vertex 39.65359431638881 56.26110445062397 2.9999999999999973
vertex 42.91697407326462 51.86167680352113 2.9999999999999973
vertex 40.31172215792547 57.463271897367314 2.9999999999999973
endloop
endfacet
facet normal -2.146345738918641e-32 -2.978088215375508e-32 1.0
outer loop
vertex 40.31172215792547 57.463271897367314 2.9999999999999973
vertex 42.91697407326462 51.86167680352113 2.9999999999999973
vertex 40.636281006446154 58.7948125012026 2.9999999999999973
endloop
endfacet
facet normal -2.146345738918641e-32 -2.978088215375508e-32 1.0
outer loop
vertex 27.916974073264615 66.86167680352112 2.9999999999999973
vertex 34.61366690633241 64.54985544303958 2.9999999999999973
vertex 42.91697407326462 66.86167680352112 2.9999999999999973
endloop
endfacet
facet normal -2.146345738918641e-32 -2.978088215375508e-32 1.0
outer loop
vertex 34.61366690633241 64.54985544303958 2.9999999999999973
vertex 27.916974073264615 66.86167680352112 2.9999999999999973
vertex 33.29823949298024 64.16516134896388 2.9999999999999973
endloop
endfacet
facet normal -2.146345738918641e-32 -2.978088215375508e-32 1.0
outer loop
vertex 33.29823949298024 64.16516134896388 2.9999999999999973
vertex 27.916974073264615 66.86167680352112 2.9999999999999973
vertex 32.12720033990001 63.45311772124977 2.9999999999999973
endloop
endfacet
facet normal -2.146345738918641e-32 -2.978088215375508e-32 1.0
outer loop
vertex 32.12720033990001 63.45311772124977 2.9999999999999973
vertex 27.916974073264615 66.86167680352112 2.9999999999999973
vertex 31.180353830140415 62.4622491564183 2.9999999999999973
endloop
endfacet
facet normal -2.146345738918641e-32 -2.978088215375508e-32 1.0
outer loop
vertex 31.180353830140415 62.4622491564183 2.9999999999999973
vertex 27.916974073264615 66.86167680352112 2.9999999999999973
vertex 30.522225988603754 61.26008170967494 2.9999999999999973
endloop
endfacet
facet normal -2.146345738918641e-32 -2.978088215375508e-32 1.0
outer loop
vertex 30.522225988603754 61.26008170967494 2.9999999999999973
vertex 27.916974073264615 66.86167680352112 2.9999999999999973
vertex 27.916974073264626 51.86167680352113 2.9999999999999973
endloop
endfacet
facet normal -2.146345738918641e-32 -2.978088215375508e-32 1.0
outer loop
vertex 30.522225988603754 61.26008170967494 2.9999999999999973
vertex 27.916974073264626 51.86167680352113 2.9999999999999973
vertex 30.19766714008307 59.92854110583968 2.9999999999999973
endloop
endfacet
facet normal -2.146345738918641e-32 -2.978088215375508e-32 1.0
outer loop
vertex 42.91697407326462 66.86167680352112 2.9999999999999973
vertex 34.61366690633241 64.54985544303958 2.9999999999999973
vertex 35.41697407326461 64.56810540806593 2.9999999999999973
endloop
endfacet
facet normal -2.146345738918641e-32 -2.978088215375508e-32 1.0
outer loop
vertex 42.91697407326462 66.86167680352112 2.9999999999999973
vertex 35.41697407326461 64.56810540806593 2.9999999999999973
vertex 35.98383837558315 64.58098373670266 2.9999999999999973
endloop
endfacet
facet normal -2.146345738918641e-32 -2.978088215375508e-32 1.0
outer loop
vertex 42.91697407326462 66.86167680352112 2.9999999999999973
vertex 35.98383837558315 64.58098373670266 2.9999999999999973
vertex 37.31537897941844 64.25642488818198 2.9999999999999973
endloop
endfacet
facet normal -2.146345738918641e-32 -2.978088215375508e-32 1.0
outer loop
vertex 42.91697407326462 66.86167680352112 2.9999999999999973
vertex 37.31537897941844 64.25642488818198 2.9999999999999973
vertex 38.51754642616178 63.598297046645335 2.9999999999999973
endloop
endfacet
facet normal -2.146345738918641e-32 -2.978088215375508e-32 1.0
outer loop
vertex 42.91697407326462 66.86167680352112 2.9999999999999973
vertex 38.51754642616178 63.598297046645335 2.9999999999999973
vertex 39.50841499099326 62.65145053688575 2.9999999999999973
endloop
endfacet
facet normal -2.146345738918641e-32 -2.978088215375508e-32 1.0
outer loop
vertex 42.91697407326462 66.86167680352112 2.9999999999999973
vertex 39.50841499099326 62.65145053688575 2.9999999999999973
vertex 40.22045861870735 61.4804113838055 2.9999999999999973
endloop
endfacet
facet normal -2.146345738918641e-32 -2.978088215375508e-32 1.0
outer loop
vertex 42.91697407326462 66.86167680352112 2.9999999999999973
vertex 40.22045861870735 61.4804113838055 2.9999999999999973
vertex 40.605152712783045 60.16498397045333 2.9999999999999973
endloop
endfacet
facet normal -2.146345738918641e-32 -2.978088215375508e-32 1.0
outer loop
vertex 42.91697407326462 66.86167680352112 2.9999999999999973
vertex 40.605152712783045 60.16498397045333 2.9999999999999973
vertex 40.636281006446154 58.7948125012026 2.9999999999999973
endloop
endfacet
facet normal -2.146345738918641e-32 -2.978088215375508e-32 1.0
outer loop
vertex 42.91697407326462 66.86167680352112 2.9999999999999973
vertex 40.636281006446154 58.7948125012026 2.9999999999999973
vertex 42.91697407326462 51.86167680352113 2.9999999999999973
endloop
endfacet
facet normal 0.4035684914827401 -0.9149494372271868 0.0
outer loop
vertex 33.29823949298024 64.16516134896388 2.9999999999999973
vertex 32.12720033990001 63.45311772124977 -5.000000000000002
vertex 33.29823949298024 64.16516134896388 -5.000000000000002
endloop
endfacet
facet normal 0.6266235682599268 -0.7793220795673614 0.0
outer loop
vertex 32.12720033990001 63.45311772124977 -5.000000000000002
vertex 33.29823949298024 64.16516134896388 2.9999999999999973
vertex 32.12720033990001 63.45311772124977 2.9999999999999973
endloop
endfacet
facet normal 0.15301088893946774 -0.9882245027654162 0.0
outer loop
vertex 34.61366690633241 64.54985544303958 2.9999999999999973
vertex 33.29823949298024 64.16516134896388 -5.000000000000002
vertex 34.61366690633241 64.54985544303958 -5.000000000000002
endloop
endfacet
facet normal 0.4035684914827401 -0.9149494372271868 0.0
outer loop
vertex 33.29823949298024 64.16516134896388 -5.000000000000002
vertex 34.61366690633241 64.54985544303958 2.9999999999999973
vertex 33.29823949298024 64.16516134896388 2.9999999999999973
endloop
endfacet
facet normal 1.0 7.519910620127728e-16 0.0
outer loop
vertex 27.916974073264615 66.86167680352112 2.9999999999999973
vertex 27.916974073264626 51.86167680352113 5.999999999999997
vertex 27.916974073264626 51.86167680352113 2.9999999999999973
endloop
endfacet
facet normal 1.0 7.519910620127728e-16 0.0
outer loop
vertex 27.916974073264626 51.86167680352113 5.999999999999997
vertex 27.916974073264615 66.86167680352112 2.9999999999999973
vertex 27.916974073264615 66.86167680352112 5.999999999999997
endloop
endfacet
facet normal 0.0 0.0 -1.0
outer loop
vertex 27.916974073264615 81.86167680352112 -8.000000000000002
vertex 12.916974073264619 51.86167680352113 -8.000000000000002
vertex 12.916974073264619 66.86167680352112 -8.000000000000002
endloop
endfacet
facet normal 0.0 0.0 -1.0
outer loop
vertex 12.916974073264619 51.86167680352113 -8.000000000000002
vertex 27.916974073264615 81.86167680352112 -8.000000000000002
vertex 27.916974073264626 36.861676803521135 -8.000000000000002
endloop
endfacet
facet normal 0.0 0.0 -1.0
outer loop
vertex 27.916974073264626 36.861676803521135 -8.000000000000002
vertex 27.916974073264615 81.86167680352112 -8.000000000000002
vertex 31.987937389938416 60.28048441363509 -8.000000000000007
endloop
endfacet
facet normal 0.0 0.0 -1.0
outer loop
vertex 31.987937389938416 60.28048441363509 -8.000000000000007
vertex 27.916974073264615 81.86167680352112 -8.000000000000002
vertex 32.342583889829854 61.13667680352114 -8.000000000000007
endloop
endfacet
facet normal 0.0 0.0 -1.0
outer loop
vertex 32.342583889829854 61.13667680352114 -8.000000000000007
vertex 27.916974073264615 81.86167680352112 -8.000000000000002
vertex 42.91697407326462 81.86167680352112 -8.000000000000002
endloop
endfacet
facet normal 0.0 0.0 -1.0
outer loop
vertex 27.916974073264626 36.861676803521135 -8.000000000000002
vertex 31.987937389938416 60.28048441363509 -8.000000000000007
vertex 31.866974073264608 59.361676803521135 -8.000000000000007
endloop
endfacet
facet normal 0.0 0.0 -1.0
outer loop
vertex 32.342583889829854 61.13667680352114 -8.000000000000007
vertex 42.91697407326462 81.86167680352112 -8.000000000000002
vertex 32.90674500005237 61.87190587673337 -8.000000000000007
endloop
endfacet
facet normal 0.0 0.0 -1.0
outer loop
vertex 32.90674500005237 61.87190587673337 -8.000000000000007
vertex 42.91697407326462 81.86167680352112 -8.000000000000002
vertex 33.641974073264606 62.43606698695588 -8.000000000000007
endloop
endfacet
facet normal 0.0 0.0 -1.0
outer loop
vertex 33.641974073264606 62.43606698695588 -8.000000000000007
vertex 42.91697407326462 81.86167680352112 -8.000000000000002
vertex 34.49816646315066 62.790713486847324 -8.000000000000007
endloop
endfacet
facet normal 0.0 0.0 -1.0
outer loop
vertex 34.49816646315066 62.790713486847324 -8.000000000000007
vertex 42.91697407326462 81.86167680352112 -8.000000000000002
vertex 35.41697407326461 62.91167680352114 -8.000000000000007
endloop
endfacet
facet normal 0.0 0.0 -1.0
outer loop
vertex 35.41697407326461 62.91167680352114 -8.000000000000007
vertex 42.91697407326462 81.86167680352112 -8.000000000000002
vertex 36.33578168337856 62.790713486847324 -8.000000000000007
endloop
endfacet
facet normal 0.0 0.0 -1.0
outer loop
vertex 36.33578168337856 62.790713486847324 -8.000000000000007
vertex 42.91697407326462 81.86167680352112 -8.000000000000002
vertex 37.19197407326462 62.43606698695588 -8.000000000000007
endloop
endfacet
facet normal 0.0 0.0 -1.0
outer loop
vertex 37.19197407326462 62.43606698695588 -8.000000000000007
vertex 42.91697407326462 81.86167680352112 -8.000000000000002
vertex 37.927203146476856 61.87190587673337 -8.000000000000007
endloop
endfacet
facet normal 0.0 0.0 -1.0
outer loop
vertex 37.927203146476856 61.87190587673337 -8.000000000000007
vertex 42.91697407326462 81.86167680352112 -8.000000000000002
vertex 38.49136425669937 61.13667680352114 -8.000000000000007
endloop
endfacet
facet normal 0.0 0.0 -1.0
outer loop
vertex 38.49136425669937 61.13667680352114 -8.000000000000007
vertex 42.91697407326462 81.86167680352112 -8.000000000000002
vertex 38.84601075659081 60.28048441363509 -8.000000000000007
endloop
endfacet
facet normal 0.0 0.0 -1.0
outer loop
vertex 38.84601075659081 60.28048441363509 -8.000000000000007
vertex 42.91697407326462 81.86167680352112 -8.000000000000002
vertex 38.8960554317656 59.90035736635608 -8.000000000000007
endloop
endfacet
facet normal 0.0 0.0 -1.0
outer loop
vertex 38.8960554317656 59.90035736635608 -8.000000000000007
vertex 42.91697407326462 81.86167680352112 -8.000000000000002
vertex 38.966974073264616 59.361676803521135 -8.000000000000007
endloop
endfacet
facet normal 0.0 0.0 -1.0
outer loop
vertex 27.916974073264626 36.861676803521135 -8.000000000000002
vertex 32.342583889829854 57.58667680352114 -8.000000000000007
vertex 42.91697407326462 36.861676803521135 -8.000000000000002
endloop
endfacet
facet normal 0.0 0.0 -1.0
outer loop
vertex 32.342583889829854 57.58667680352114 -8.000000000000007
vertex 27.916974073264626 36.861676803521135 -8.000000000000002
vertex 31.987937389938416 58.442869193407184 -8.000000000000007
endloop
endfacet
facet normal 0.0 0.0 -1.0
outer loop
vertex 31.987937389938416 58.442869193407184 -8.000000000000007
vertex 27.916974073264626 36.861676803521135 -8.000000000000002
vertex 31.866974073264608 59.361676803521135 -8.000000000000007
endloop
endfacet
facet normal 0.0 0.0 -1.0
outer loop
vertex 31.987937389938416 58.442869193407184 -8.000000000000007
vertex 31.866974073264608 59.361676803521135 -8.000000000000007
vertex 31.937892714763617 58.82299624068619 -8.000000000000007
endloop
endfacet
facet normal 0.0 0.0 -1.0
outer loop
vertex 42.91697407326462 36.861676803521135 -8.000000000000002
vertex 32.342583889829854 57.58667680352114 -8.000000000000007
vertex 32.90674500005237 56.85144773030888 -8.000000000000007
endloop
endfacet
facet normal 0.0 0.0 -1.0
outer loop
vertex 42.91697407326462 36.861676803521135 -8.000000000000002
vertex 32.90674500005237 56.85144773030888 -8.000000000000007
vertex 33.641974073264606 56.28728662008637 -8.000000000000007
endloop
endfacet
facet normal 0.0 0.0 -1.0
outer loop
vertex 42.91697407326462 36.861676803521135 -8.000000000000002
vertex 33.641974073264606 56.28728662008637 -8.000000000000007
vertex 34.49816646315066 55.932640120194925 -8.000000000000007
endloop
endfacet
facet normal 0.0 0.0 -1.0
outer loop
vertex 42.91697407326462 36.861676803521135 -8.000000000000002
vertex 34.49816646315066 55.932640120194925 -8.000000000000007
vertex 35.41697407326461 55.81167680352113 -8.000000000000007
endloop
endfacet
facet normal 0.0 0.0 -1.0
outer loop
vertex 42.91697407326462 36.861676803521135 -8.000000000000002
vertex 35.41697407326461 55.81167680352113 -8.000000000000007
vertex 36.33578168337856 55.932640120194925 -8.000000000000007
endloop
endfacet
facet normal 0.0 0.0 -1.0
outer loop
vertex 42.91697407326462 36.861676803521135 -8.000000000000002
vertex 36.33578168337856 55.932640120194925 -8.000000000000007
vertex 37.19197407326462 56.28728662008637 -8.000000000000007
endloop
endfacet
facet normal 0.0 0.0 -1.0
outer loop
vertex 42.91697407326462 36.861676803521135 -8.000000000000002
vertex 37.19197407326462 56.28728662008637 -8.000000000000007
vertex 37.927203146476856 56.85144773030888 -8.000000000000007
endloop
endfacet
facet normal 0.0 0.0 -1.0
outer loop
vertex 42.91697407326462 36.861676803521135 -8.000000000000002
vertex 37.927203146476856 56.85144773030888 -8.000000000000007
vertex 38.49136425669938 57.58667680352114 -8.000000000000007
endloop
endfacet
facet normal 0.0 0.0 -1.0
outer loop
vertex 42.91697407326462 36.861676803521135 -8.000000000000002
vertex 38.49136425669938 57.58667680352114 -8.000000000000007
vertex 38.84601075659081 58.442869193407184 -8.000000000000007
endloop
endfacet
facet normal 0.0 0.0 -1.0
outer loop
vertex 42.91697407326462 36.861676803521135 -8.000000000000002
vertex 38.84601075659081 58.442869193407184 -8.000000000000007
vertex 38.966974073264616 59.361676803521135 -8.000000000000007
endloop
endfacet
facet normal 0.0 0.0 -1.0
outer loop
vertex 42.91697407326462 36.861676803521135 -8.000000000000002
vertex 38.966974073264616 59.361676803521135 -8.000000000000007
vertex 42.91697407326462 81.86167680352112 -8.000000000000002
endloop
endfacet
facet normal 0.0 0.0 -1.0
outer loop
vertex 42.91697407326462 36.861676803521135 -8.000000000000002
vertex 42.91697407326462 81.86167680352112 -8.000000000000002
vertex 57.91697407326462 66.86167680352112 -8.000000000000002
endloop
endfacet
facet normal 0.0 0.0 -1.0
outer loop
vertex 42.91697407326462 36.861676803521135 -8.000000000000002
vertex 57.91697407326462 66.86167680352112 -8.000000000000002
vertex 57.91697407326462 51.86167680352113 -8.000000000000002
endloop
endfacet
facet normal 0.022712678168753674 -0.9997420338519347 0.0
outer loop
vertex 35.41697407326461 64.56810540806593 2.9999999999999973
vertex 34.61366690633241 64.54985544303958 -5.000000000000002
vertex 35.41697407326461 64.56810540806593 -5.000000000000002
endloop
endfacet
facet normal 0.15301088893946774 -0.9882245027654162 0.0
outer loop
vertex 34.61366690633241 64.54985544303958 -5.000000000000002
vertex 35.41697407326461 64.56810540806593 2.9999999999999973
vertex 34.61366690633241 64.54985544303958 2.9999999999999973
endloop
endfacet
facet normal -0.1079741528225788 -0.9941537015583891 0.0
outer loop
vertex 35.98383837558315 64.58098373670266 2.9999999999999973
vertex 35.41697407326461 64.56810540806593 -5.000000000000002
vertex 35.98383837558315 64.58098373670266 -5.000000000000002
endloop
endfacet
facet normal 0.0227126781687462 -0.9997420338519348 0.0
outer loop
vertex 35.41697407326461 64.56810540806593 -5.000000000000002
vertex 35.98383837558315 64.58098373670266 2.9999999999999973
vertex 35.41697407326461 64.56810540806593 2.9999999999999973
endloop
endfacet
facet normal -0.3616009345054901 -0.9323329685068293 0.0
outer loop
vertex 37.31537897941844 64.25642488818198 2.9999999999999973
vertex 35.98383837558315 64.58098373670266 -5.000000000000002
vertex 37.31537897941844 64.25642488818198 -5.000000000000002
endloop
endfacet
facet normal -0.1079741528225788 -0.9941537015583891 0.0
outer loop
vertex 35.98383837558315 64.58098373670266 -5.000000000000002
vertex 37.31537897941844 64.25642488818198 2.9999999999999973
vertex 35.98383837558315 64.58098373670266 2.9999999999999973
endloop
endfacet
facet normal -0.5905852100756519 -0.8069752844046083 0.0
outer loop
vertex 38.51754642616178 63.598297046645335 2.9999999999999973
vertex 37.31537897941844 64.25642488818198 -5.000000000000002
vertex 38.51754642616178 63.598297046645335 -5.000000000000002
endloop
endfacet
facet normal -0.3616009345054901 -0.9323329685068293 0.0
outer loop
vertex 37.31537897941844 64.25642488818198 -5.000000000000002
vertex 38.51754642616178 63.598297046645335 2.9999999999999973
vertex 37.31537897941844 64.25642488818198 2.9999999999999973
endloop
endfacet
facet normal -0.779322079567361 -0.6266235682599275 0.0
outer loop
vertex 39.50841499099326 62.65145053688575 2.9999999999999973
vertex 38.51754642616178 63.598297046645335 -5.000000000000002
vertex 39.50841499099326 62.65145053688575 -5.000000000000002
endloop
endfacet
facet normal -0.5905852100756519 -0.8069752844046083 0.0
outer loop
vertex 38.51754642616178 63.598297046645335 -5.000000000000002
vertex 39.50841499099326 62.65145053688575 2.9999999999999973
vertex 38.51754642616178 63.598297046645335 2.9999999999999973
endloop
endfacet
facet normal -0.779322079567361 -0.6266235682599275 0.0
outer loop
vertex 39.50841499099326 62.65145053688575 2.9999999999999973
vertex 40.22045861870735 61.4804113838055 -5.000000000000002
vertex 40.22045861870735 61.4804113838055 2.9999999999999973
endloop
endfacet
facet normal -0.9149494372271876 -0.40356849148273793 0.0
outer loop
vertex 40.22045861870735 61.4804113838055 -5.000000000000002
vertex 39.50841499099326 62.65145053688575 2.9999999999999973
vertex 39.50841499099326 62.65145053688575 -5.000000000000002
endloop
endfacet
facet normal -0.9149494372271876 -0.40356849148273793 0.0
outer loop
vertex 40.22045861870735 61.4804113838055 2.9999999999999973
vertex 40.605152712783045 60.16498397045333 -5.000000000000002
vertex 40.605152712783045 60.16498397045333 2.9999999999999973
endloop
endfacet
facet normal -0.9882245027654164 -0.1530108889394662 0.0
outer loop
vertex 40.605152712783045 60.16498397045333 -5.000000000000002
vertex 40.22045861870735 61.4804113838055 2.9999999999999973
vertex 40.22045861870735 61.4804113838055 -5.000000000000002
endloop
endfacet
facet normal -0.9882245027654164 -0.1530108889394662 0.0
outer loop
vertex 40.605152712783045 60.16498397045333 2.9999999999999973
vertex 40.636281006446154 58.7948125012026 -5.000000000000002
vertex 40.636281006446154 58.7948125012026 2.9999999999999973
endloop
endfacet
facet normal -0.9941537015583893 0.10797415282257665 0.0
outer loop
vertex 40.636281006446154 58.7948125012026 -5.000000000000002
vertex 40.605152712783045 60.16498397045333 2.9999999999999973
vertex 40.605152712783045 60.16498397045333 -5.000000000000002
endloop
endfacet
facet normal -0.9941537015583893 0.10797415282257665 0.0
outer loop
vertex 40.636281006446154 58.7948125012026 2.9999999999999973
vertex 40.31172215792547 57.463271897367314 -5.000000000000002
vertex 40.31172215792547 57.463271897367314 2.9999999999999973
endloop
endfacet
facet normal -0.9323329685068293 0.3616009345054901 0.0
outer loop
vertex 40.31172215792547 57.463271897367314 -5.000000000000002
vertex 40.636281006446154 58.7948125012026 2.9999999999999973
vertex 40.636281006446154 58.7948125012026 -5.000000000000002
endloop
endfacet
facet normal -0.9323329685068293 0.3616009345054901 0.0
outer loop
vertex 40.31172215792547 57.463271897367314 2.9999999999999973
vertex 39.65359431638881 56.26110445062397 -5.000000000000002
vertex 39.65359431638881 56.26110445062397 2.9999999999999973
endloop
endfacet
facet normal -0.8069752844046083 0.5905852100756519 0.0
outer loop
vertex 39.65359431638881 56.26110445062397 -5.000000000000002
vertex 40.31172215792547 57.463271897367314 2.9999999999999973
vertex 40.31172215792547 57.463271897367314 -5.000000000000002
endloop
endfacet
facet normal -0.8069752844046083 0.5905852100756519 0.0
outer loop
vertex 39.65359431638881 56.26110445062397 2.9999999999999973
vertex 38.70674780662923 55.27023588579248 -5.000000000000002
vertex 38.70674780662923 55.27023588579248 2.9999999999999973
endloop
endfacet
facet normal -0.6266235682599275 0.779322079567361 0.0
outer loop
vertex 38.70674780662923 55.27023588579248 -5.000000000000002
vertex 39.65359431638881 56.26110445062397 2.9999999999999973
vertex 39.65359431638881 56.26110445062397 -5.000000000000002
endloop
endfacet
facet normal -0.403568491482739 0.9149494372271871 0.0
outer loop
vertex 37.53570865354899 54.5581922580784 2.9999999999999973
vertex 38.70674780662923 55.27023588579248 -5.000000000000002
vertex 37.53570865354899 54.5581922580784 -5.000000000000002
endloop
endfacet
facet normal -0.6266235682599275 0.779322079567361 0.0
outer loop
vertex 38.70674780662923 55.27023588579248 -5.000000000000002
vertex 37.53570865354899 54.5581922580784 2.9999999999999973
vertex 38.70674780662923 55.27023588579248 2.9999999999999973
endloop
endfacet
facet normal 0.3616009345054892 0.9323329685068298 0.0
outer loop
vertex 33.5185691671108 54.46692871886027 2.9999999999999973
vertex 34.85010977094607 54.142369870339586 -5.000000000000002
vertex 33.5185691671108 54.46692871886027 -5.000000000000002
endloop
endfacet
facet normal 0.10797415282258004 0.994153701558389 0.0
outer loop
vertex 34.85010977094607 54.142369870339586 -5.000000000000002
vertex 33.5185691671108 54.46692871886027 2.9999999999999973
vertex 34.85010977094607 54.142369870339586 2.9999999999999973
endloop
endfacet
facet normal -0.15301088893946888 0.9882245027654161 0.0
outer loop
vertex 36.220281240196826 54.1734981640027 2.9999999999999973
vertex 37.53570865354899 54.5581922580784 -5.000000000000002
vertex 36.220281240196826 54.1734981640027 -5.000000000000002
endloop
endfacet
facet normal -0.403568491482739 0.9149494372271871 0.0
outer loop
vertex 37.53570865354899 54.5581922580784 -5.000000000000002
vertex 36.220281240196826 54.1734981640027 2.9999999999999973
vertex 37.53570865354899 54.5581922580784 2.9999999999999973
endloop
endfacet
facet normal -0.022712678168753674 0.9997420338519347 0.0
outer loop
vertex 35.416974073264626 54.15524819897634 2.9999999999999973
vertex 36.220281240196826 54.1734981640027 -5.000000000000002
vertex 35.416974073264626 54.15524819897634 -5.000000000000002
endloop
endfacet
facet normal -0.15301088893946888 0.9882245027654161 0.0
outer loop
vertex 36.220281240196826 54.1734981640027 -5.000000000000002
vertex 35.416974073264626 54.15524819897634 2.9999999999999973
vertex 36.220281240196826 54.1734981640027 2.9999999999999973
endloop
endfacet
facet normal 0.10797415282258004 0.994153701558389 0.0
outer loop
vertex 34.85010977094607 54.142369870339586 2.9999999999999973
vertex 35.416974073264626 54.15524819897634 -5.000000000000002
vertex 34.85010977094607 54.142369870339586 -5.000000000000002
endloop
endfacet
facet normal -0.022712678168745747 0.9997420338519348 0.0
outer loop
vertex 35.416974073264626 54.15524819897634 -5.000000000000002
vertex 34.85010977094607 54.142369870339586 2.9999999999999973
vertex 35.416974073264626 54.15524819897634 2.9999999999999973
endloop
endfacet
facet normal -1.5628724510952624e-33 8.876759404947556e-32 1.0
outer loop
vertex 32.316401720367445 55.125056560396935 -5.000000000000002
vertex 31.866974073264608 59.361676803521135 -5.000000000000002
vertex 31.325533155535968 56.0719030701565 -5.000000000000002
endloop
endfacet
facet normal -1.5628724510952624e-33 8.876759404947556e-32 1.0
outer loop
vertex 31.866974073264608 59.361676803521135 -5.000000000000002
vertex 32.316401720367445 55.125056560396935 -5.000000000000002
vertex 31.937892714763617 58.82299624068619 -5.000000000000002
endloop
endfacet
facet normal -1.5628724510952624e-33 8.876759404947556e-32 1.0
outer loop
vertex 31.937892714763617 58.82299624068619 -5.000000000000002
vertex 32.316401720367445 55.125056560396935 -5.000000000000002
vertex 31.987937389938416 58.442869193407184 -5.000000000000002
endloop
endfacet
facet normal -1.5628724510952624e-33 8.876759404947556e-32 1.0
outer loop
vertex 31.987937389938416 58.442869193407184 -5.000000000000002
vertex 32.316401720367445 55.125056560396935 -5.000000000000002
vertex 32.342583889829854 57.58667680352114 -5.000000000000002
endloop
endfacet
facet normal -1.5628724510952624e-33 8.876759404947556e-32 1.0
outer loop
vertex 32.342583889829854 57.58667680352114 -5.000000000000002
vertex 32.316401720367445 55.125056560396935 -5.000000000000002
vertex 33.5185691671108 54.46692871886027 -5.000000000000002
endloop
endfacet
facet normal -1.5628724510952624e-33 8.876759404947556e-32 1.0
outer loop
vertex 32.342583889829854 57.58667680352114 -5.000000000000002
vertex 33.5185691671108 54.46692871886027 -5.000000000000002
vertex 32.90674500005237 56.85144773030888 -5.000000000000002
endloop
endfacet
facet normal -1.5628724510952624e-33 8.876759404947556e-32 1.0
outer loop
vertex 32.90674500005237 56.85144773030888 -5.000000000000002
vertex 33.5185691671108 54.46692871886027 -5.000000000000002
vertex 33.641974073264606 56.28728662008637 -5.000000000000002
endloop
endfacet
facet normal -1.5628724510952624e-33 8.876759404947556e-32 1.0
outer loop
vertex 33.641974073264606 56.28728662008637 -5.000000000000002
vertex 33.5185691671108 54.46692871886027 -5.000000000000002
vertex 34.85010977094607 54.142369870339586 -5.000000000000002
endloop
endfacet
facet normal -1.5628724510952624e-33 8.876759404947556e-32 1.0
outer loop
vertex 33.641974073264606 56.28728662008637 -5.000000000000002
vertex 34.85010977094607 54.142369870339586 -5.000000000000002
vertex 34.49816646315066 55.932640120194925 -5.000000000000002
endloop
endfacet
facet normal -1.5628724510952624e-33 8.876759404947556e-32 1.0
outer loop
vertex 34.49816646315066 55.932640120194925 -5.000000000000002
vertex 34.85010977094607 54.142369870339586 -5.000000000000002
vertex 35.41697407326461 55.81167680352113 -5.000000000000002
endloop
endfacet
facet normal -1.5628724510952624e-33 8.876759404947556e-32 1.0
outer loop
vertex 35.41697407326461 55.81167680352113 -5.000000000000002
vertex 34.85010977094607 54.142369870339586 -5.000000000000002
vertex 35.416974073264626 54.15524819897634 -5.000000000000002
endloop
endfacet
facet normal -1.5628724510952624e-33 8.876759404947556e-32 1.0
outer loop
vertex 35.41697407326461 55.81167680352113 -5.000000000000002
vertex 35.416974073264626 54.15524819897634 -5.000000000000002
vertex 36.33578168337856 55.932640120194925 -5.000000000000002
endloop
endfacet
facet normal -1.5628724510952624e-33 8.876759404947556e-32 1.0
outer loop
vertex 36.33578168337856 55.932640120194925 -5.000000000000002
vertex 35.416974073264626 54.15524819897634 -5.000000000000002
vertex 36.220281240196826 54.1734981640027 -5.000000000000002
endloop
endfacet
facet normal -1.5628724510952624e-33 8.876759404947556e-32 1.0
outer loop
vertex 36.33578168337856 55.932640120194925 -5.000000000000002
vertex 36.220281240196826 54.1734981640027 -5.000000000000002
vertex 37.53570865354899 54.5581922580784 -5.000000000000002
endloop
endfacet
facet normal -1.5628724510952624e-33 8.876759404947556e-32 1.0
outer loop
vertex 36.33578168337856 55.932640120194925 -5.000000000000002
vertex 37.53570865354899 54.5581922580784 -5.000000000000002
vertex 37.19197407326462 56.28728662008637 -5.000000000000002
endloop
endfacet
facet normal -1.5628724510952624e-33 8.876759404947556e-32 1.0
outer loop
vertex 37.19197407326462 56.28728662008637 -5.000000000000002
vertex 37.53570865354899 54.5581922580784 -5.000000000000002
vertex 37.927203146476856 56.85144773030888 -5.000000000000002
endloop
endfacet
facet normal -1.5628724510952624e-33 8.876759404947556e-32 1.0
outer loop
vertex 37.927203146476856 56.85144773030888 -5.000000000000002
vertex 37.53570865354899 54.5581922580784 -5.000000000000002
vertex 38.70674780662923 55.27023588579248 -5.000000000000002
endloop
endfacet
facet normal -1.5628724510952624e-33 8.876759404947556e-32 1.0
outer loop
vertex 37.927203146476856 56.85144773030888 -5.000000000000002
vertex 38.70674780662923 55.27023588579248 -5.000000000000002
vertex 38.49136425669938 57.58667680352114 -5.000000000000002
endloop
endfacet
facet normal -1.5628724510952624e-33 8.876759404947556e-32 1.0
outer loop
vertex 38.49136425669938 57.58667680352114 -5.000000000000002
vertex 38.70674780662923 55.27023588579248 -5.000000000000002
vertex 38.84601075659081 58.442869193407184 -5.000000000000002
endloop
endfacet
facet normal -1.5628724510952624e-33 8.876759404947556e-32 1.0
outer loop
vertex 38.84601075659081 58.442869193407184 -5.000000000000002
vertex 38.70674780662923 55.27023588579248 -5.000000000000002
vertex 39.65359431638881 56.26110445062397 -5.000000000000002
endloop
endfacet
facet normal -1.5628724510952624e-33 8.876759404947556e-32 1.0
outer loop
vertex 38.84601075659081 58.442869193407184 -5.000000000000002
vertex 39.65359431638881 56.26110445062397 -5.000000000000002
vertex 38.966974073264616 59.361676803521135 -5.000000000000002
endloop
endfacet
facet normal -1.5628724510952624e-33 8.876759404947556e-32 1.0
outer loop
vertex 38.966974073264616 59.361676803521135 -5.000000000000002
vertex 39.65359431638881 56.26110445062397 -5.000000000000002
vertex 39.50841499099326 62.65145053688575 -5.000000000000002
endloop
endfacet
facet normal -1.5628724510952624e-33 8.876759404947556e-32 1.0
outer loop
vertex 39.50841499099326 62.65145053688575 -5.000000000000002
vertex 39.65359431638881 56.26110445062397 -5.000000000000002
vertex 40.22045861870735 61.4804113838055 -5.000000000000002
endloop
endfacet
facet normal -1.5628724510952624e-33 8.876759404947556e-32 1.0
outer loop
vertex 40.22045861870735 61.4804113838055 -5.000000000000002
vertex 39.65359431638881 56.26110445062397 -5.000000000000002
vertex 40.31172215792547 57.463271897367314 -5.000000000000002
endloop
endfacet
facet normal -1.5628724510952624e-33 8.876759404947556e-32 1.0
outer loop
vertex 40.22045861870735 61.4804113838055 -5.000000000000002
vertex 40.31172215792547 57.463271897367314 -5.000000000000002
vertex 40.605152712783045 60.16498397045333 -5.000000000000002
endloop
endfacet
facet normal -1.5628724510952624e-33 8.876759404947556e-32 1.0
outer loop
vertex 40.605152712783045 60.16498397045333 -5.000000000000002
vertex 40.31172215792547 57.463271897367314 -5.000000000000002
vertex 40.636281006446154 58.7948125012026 -5.000000000000002
endloop
endfacet
facet normal -1.5628724510952624e-33 8.876759404947556e-32 1.0
outer loop
vertex 30.22879543374618 58.55836963658892 -5.000000000000002
vertex 30.522225988603754 61.26008170967494 -5.000000000000002
vertex 30.19766714008307 59.92854110583968 -5.000000000000002
endloop
endfacet
facet normal -1.5628724510952624e-33 8.876759404947556e-32 1.0
outer loop
vertex 30.522225988603754 61.26008170967494 -5.000000000000002
vertex 30.22879543374618 58.55836963658892 -5.000000000000002
vertex 30.613489527821876 57.242942223236746 -5.000000000000002
endloop
endfacet
facet normal -1.5628724510952624e-33 8.876759404947556e-32 1.0
outer loop
vertex 30.522225988603754 61.26008170967494 -5.000000000000002
vertex 30.613489527821876 57.242942223236746 -5.000000000000002
vertex 31.180353830140415 62.4622491564183 -5.000000000000002
endloop
endfacet
facet normal -1.5628724510952624e-33 8.876759404947556e-32 1.0
outer loop
vertex 31.180353830140415 62.4622491564183 -5.000000000000002
vertex 30.613489527821876 57.242942223236746 -5.000000000000002
vertex 31.325533155535968 56.0719030701565 -5.000000000000002
endloop
endfacet
facet normal -1.5628724510952624e-33 8.876759404947556e-32 1.0
outer loop
vertex 31.180353830140415 62.4622491564183 -5.000000000000002
vertex 31.325533155535968 56.0719030701565 -5.000000000000002
vertex 32.12720033990001 63.45311772124977 -5.000000000000002
endloop
endfacet
facet normal -1.5628724510952624e-33 8.876759404947556e-32 1.0
outer loop
vertex 32.12720033990001 63.45311772124977 -5.000000000000002
vertex 31.325533155535968 56.0719030701565 -5.000000000000002
vertex 31.866974073264608 59.361676803521135 -5.000000000000002
endloop
endfacet
facet normal -1.5628724510952624e-33 8.876759404947556e-32 1.0
outer loop
vertex 32.12720033990001 63.45311772124977 -5.000000000000002
vertex 31.866974073264608 59.361676803521135 -5.000000000000002
vertex 31.987937389938416 60.28048441363509 -5.000000000000002
endloop
endfacet
facet normal -1.5628724510952624e-33 8.876759404947556e-32 1.0
outer loop
vertex 32.12720033990001 63.45311772124977 -5.000000000000002
vertex 31.987937389938416 60.28048441363509 -5.000000000000002
vertex 32.342583889829854 61.13667680352114 -5.000000000000002
endloop
endfacet
facet normal -1.5628724510952624e-33 8.876759404947556e-32 1.0
outer loop
vertex 32.12720033990001 63.45311772124977 -5.000000000000002
vertex 32.342583889829854 61.13667680352114 -5.000000000000002
vertex 33.29823949298024 64.16516134896388 -5.000000000000002
endloop
endfacet
facet normal -1.5628724510952624e-33 8.876759404947556e-32 1.0
outer loop
vertex 33.29823949298024 64.16516134896388 -5.000000000000002
vertex 32.342583889829854 61.13667680352114 -5.000000000000002
vertex 32.90674500005237 61.87190587673337 -5.000000000000002
endloop
endfacet
facet normal -1.5628724510952624e-33 8.876759404947556e-32 1.0
outer loop
vertex 33.29823949298024 64.16516134896388 -5.000000000000002
vertex 32.90674500005237 61.87190587673337 -5.000000000000002
vertex 33.641974073264606 62.43606698695588 -5.000000000000002
endloop
endfacet
facet normal -1.5628724510952624e-33 8.876759404947556e-32 1.0
outer loop
vertex 33.29823949298024 64.16516134896388 -5.000000000000002
vertex 33.641974073264606 62.43606698695588 -5.000000000000002
vertex 34.61366690633241 64.54985544303958 -5.000000000000002
endloop
endfacet
facet normal -1.5628724510952624e-33 8.876759404947556e-32 1.0
outer loop
vertex 34.61366690633241 64.54985544303958 -5.000000000000002
vertex 33.641974073264606 62.43606698695588 -5.000000000000002
vertex 34.49816646315066 62.790713486847324 -5.000000000000002
endloop
endfacet
facet normal -1.5628724510952624e-33 8.876759404947556e-32 1.0
outer loop
vertex 34.61366690633241 64.54985544303958 -5.000000000000002
vertex 34.49816646315066 62.790713486847324 -5.000000000000002
vertex 35.41697407326461 62.91167680352114 -5.000000000000002
endloop
endfacet
facet normal -1.5628724510952624e-33 8.876759404947556e-32 1.0
outer loop
vertex 34.61366690633241 64.54985544303958 -5.000000000000002
vertex 35.41697407326461 62.91167680352114 -5.000000000000002
vertex 35.41697407326461 64.56810540806593 -5.000000000000002
endloop
endfacet
facet normal -1.5628724510952624e-33 8.876759404947556e-32 1.0
outer loop
vertex 35.41697407326461 64.56810540806593 -5.000000000000002
vertex 35.41697407326461 62.91167680352114 -5.000000000000002
vertex 36.33578168337856 62.790713486847324 -5.000000000000002
endloop
endfacet
facet normal -1.5628724510952624e-33 8.876759404947556e-32 1.0
outer loop
vertex 35.41697407326461 64.56810540806593 -5.000000000000002
vertex 36.33578168337856 62.790713486847324 -5.000000000000002
vertex 35.98383837558315 64.58098373670266 -5.000000000000002
endloop
endfacet
facet normal -1.5628724510952624e-33 8.876759404947556e-32 1.0
outer loop
vertex 35.98383837558315 64.58098373670266 -5.000000000000002
vertex 36.33578168337856 62.790713486847324 -5.000000000000002
vertex 37.31537897941844 64.25642488818198 -5.000000000000002
endloop
endfacet
facet normal -1.5628724510952624e-33 8.876759404947556e-32 1.0
outer loop
vertex 37.31537897941844 64.25642488818198 -5.000000000000002
vertex 36.33578168337856 62.790713486847324 -5.000000000000002
vertex 37.19197407326462 62.43606698695588 -5.000000000000002
endloop
endfacet
facet normal -1.5628724510952624e-33 8.876759404947556e-32 1.0
outer loop
vertex 37.31537897941844 64.25642488818198 -5.000000000000002
vertex 37.19197407326462 62.43606698695588 -5.000000000000002
vertex 37.927203146476856 61.87190587673337 -5.000000000000002
endloop
endfacet
facet normal -1.5628724510952624e-33 8.876759404947556e-32 1.0
outer loop
vertex 37.31537897941844 64.25642488818198 -5.000000000000002
vertex 37.927203146476856 61.87190587673337 -5.000000000000002
vertex 38.51754642616178 63.598297046645335 -5.000000000000002
endloop
endfacet
facet normal -1.5628724510952624e-33 8.876759404947556e-32 1.0
outer loop
vertex 38.51754642616178 63.598297046645335 -5.000000000000002
vertex 37.927203146476856 61.87190587673337 -5.000000000000002
vertex 38.49136425669937 61.13667680352114 -5.000000000000002
endloop
endfacet
facet normal -1.5628724510952624e-33 8.876759404947556e-32 1.0
outer loop
vertex 38.51754642616178 63.598297046645335 -5.000000000000002
vertex 38.49136425669937 61.13667680352114 -5.000000000000002
vertex 38.84601075659081 60.28048441363509 -5.000000000000002
endloop
endfacet
facet normal -1.5628724510952624e-33 8.876759404947556e-32 1.0
outer loop
vertex 38.51754642616178 63.598297046645335 -5.000000000000002
vertex 38.84601075659081 60.28048441363509 -5.000000000000002
vertex 39.50841499099326 62.65145053688575 -5.000000000000002
endloop
endfacet
facet normal -1.5628724510952624e-33 8.876759404947556e-32 1.0
outer loop
vertex 39.50841499099326 62.65145053688575 -5.000000000000002
vertex 38.84601075659081 60.28048441363509 -5.000000000000002
vertex 38.8960554317656 59.90035736635608 -5.000000000000002
endloop
endfacet
facet normal -1.5628724510952624e-33 8.876759404947556e-32 1.0
outer loop
vertex 39.50841499099326 62.65145053688575 -5.000000000000002
vertex 38.8960554317656 59.90035736635608 -5.000000000000002
vertex 38.966974073264616 59.361676803521135 -5.000000000000002
endloop
endfacet
facet normal 0.9941537015583892 -0.10797415282257762 0.0
outer loop
vertex 30.19766714008307 59.92854110583968 -5.000000000000002
vertex 30.22879543374618 58.55836963658892 2.9999999999999973
vertex 30.22879543374618 58.55836963658892 -5.000000000000002
endloop
endfacet
facet normal 0.9882245027654164 0.1530108889394662 0.0
outer loop
vertex 30.22879543374618 58.55836963658892 2.9999999999999973
vertex 30.19766714008307 59.92854110583968 -5.000000000000002
vertex 30.19766714008307 59.92854110583968 2.9999999999999973
endloop
endfacet
facet normal 0.779322079567361 0.6266235682599275 0.0
outer loop
vertex 31.325533155535968 56.0719030701565 2.9999999999999973
vertex 32.316401720367445 55.125056560396935 -5.000000000000002
vertex 31.325533155535968 56.0719030701565 -5.000000000000002
endloop
endfacet
facet normal 0.5905852100756501 0.8069752844046094 0.0
outer loop
vertex 32.316401720367445 55.125056560396935 -5.000000000000002
vertex 31.325533155535968 56.0719030701565 2.9999999999999973
vertex 32.316401720367445 55.125056560396935 2.9999999999999973
endloop
endfacet
facet normal 0.5905852100756501 0.8069752844046094 0.0
outer loop
vertex 32.316401720367445 55.125056560396935 2.9999999999999973
vertex 33.5185691671108 54.46692871886027 -5.000000000000002
vertex 32.316401720367445 55.125056560396935 -5.000000000000002
endloop
endfacet
facet normal 0.3616009345054892 0.9323329685068298 0.0
outer loop
vertex 33.5185691671108 54.46692871886027 -5.000000000000002
vertex 32.316401720367445 55.125056560396935 2.9999999999999973
vertex 33.5185691671108 54.46692871886027 2.9999999999999973
endloop
endfacet
facet normal 0.9149494372271876 0.40356849148273793 0.0
outer loop
vertex 30.613489527821876 57.242942223236746 -5.000000000000002
vertex 31.325533155535968 56.0719030701565 2.9999999999999973
vertex 31.325533155535968 56.0719030701565 -5.000000000000002
endloop
endfacet
facet normal 0.779322079567361 0.6266235682599275 0.0
outer loop
vertex 31.325533155535968 56.0719030701565 2.9999999999999973
vertex 30.613489527821876 57.242942223236746 -5.000000000000002
vertex 30.613489527821876 57.242942223236746 2.9999999999999973
endloop
endfacet
facet normal 0.9882245027654164 0.1530108889394662 0.0
outer loop
vertex 30.22879543374618 58.55836963658892 -5.000000000000002
vertex 30.613489527821876 57.242942223236746 2.9999999999999973
vertex 30.613489527821876 57.242942223236746 -5.000000000000002
endloop
endfacet
facet normal 0.9149494372271876 0.40356849148273793 0.0
outer loop
vertex 30.613489527821876 57.242942223236746 2.9999999999999973
vertex 30.22879543374618 58.55836963658892 -5.000000000000002
vertex 30.22879543374618 58.55836963658892 2.9999999999999973
endloop
endfacet
facet normal 0.0 0.6823182503600113 0.7310552682428689
outer loop
vertex 42.91697407326462 66.86167680352112 5.999999999999997
vertex 27.916974073264615 81.86167680352112 -8.000000000000002
vertex 27.916974073264615 66.86167680352112 5.999999999999997
endloop
endfacet
facet normal 0.0 0.6823182503600113 0.7310552682428689
outer loop
vertex 27.916974073264615 81.86167680352112 -8.000000000000002
vertex 42.91697407326462 66.86167680352112 5.999999999999997
vertex 42.91697407326462 81.86167680352112 -8.000000000000002
endloop
endfacet
facet normal 0.5636187775599323 0.5636187775599323 0.6038772616713558
outer loop
vertex 57.91697407326462 66.86167680352112 -8.000000000000002
vertex 42.91697407326462 81.86167680352112 -8.000000000000002
vertex 42.91697407326462 66.86167680352112 5.999999999999997
endloop
endfacet
endsolid Prism-Holder
